ply
format ascii 1.0
comment Created by Blender 3.4.1 - www.blender.org
element vertex 46
property float x
property float y
property float z
property float nx
property float ny
property float nz
property float s
property float t
element face 64
property list uchar uint vertex_indices
end_header
0.375000 1.250000 -0.400000 0.707107 0.707107 0.000000 0.375000 0.625000
0.375000 1.250000 0.375000 0.577350 0.577350 0.577350 0.375000 0.500000
0.375000 -1.250000 0.375000 0.578885 0.574267 0.578885 0.625000 0.500000
0.375000 -1.250000 -6.375000 0.578885 0.574267 -0.578886 0.625000 0.750000
-0.375000 1.250000 -6.375000 -0.577350 0.577350 -0.577350 0.375000 1.000000
0.375000 1.250000 -6.375000 0.577350 0.577350 -0.577350 0.375000 0.750000
-0.375000 1.250000 -0.400000 -0.301511 0.904534 -0.301511 0.125000 0.625000
-3.375000 1.250000 0.375000 -0.577350 0.577350 0.577350 0.125000 0.500000
-0.375000 1.250000 0.375000 0.000000 0.707107 0.707107 0.125000 0.500000
-0.375000 -1.250000 -6.375000 -0.578885 0.574267 -0.578886 0.625000 0.000000
-0.375000 1.250000 -0.400000 -0.301511 0.904534 -0.301511 0.375000 0.125000
-0.375000 1.250000 -6.375000 -0.577350 0.577350 -0.577350 0.375000 0.000000
-3.375000 -1.250000 -0.400000 -0.578886 0.574267 -0.578886 0.625000 0.125000
-3.375000 1.250000 0.375000 -0.577350 0.577350 0.577350 0.375000 0.250000
-3.375000 1.250000 -0.400000 -0.577350 0.577350 -0.577350 0.375000 0.125000
-0.375000 1.250000 0.375000 0.000000 0.707107 0.707107 0.375000 0.250000
-3.375000 -1.250000 0.375000 -0.578886 0.574267 0.578886 0.625000 0.250000
-0.375000 -1.250000 -0.400000 -0.650706 0.391362 -0.650706 0.625000 0.125000
0.475000 -1.350000 -0.400000 0.923879 0.382684 0.000000 0.625000 0.625000
0.475000 -1.350000 -6.475000 0.650706 0.391361 -0.650706 0.625000 0.750000
0.375000 -1.250000 -0.400000 0.923879 0.382684 0.000000 0.625000 0.625000
-0.375000 -1.250000 0.375000 0.000000 0.382684 0.923879 0.625000 0.250000
-0.375000 -1.350000 0.475000 0.000000 0.382684 0.923879 0.625000 0.250000
0.475000 -1.450000 0.475000 0.577350 -0.577350 0.577350 0.625000 0.500000
0.475000 -1.350000 0.475000 0.650706 0.391362 0.650706 0.625000 0.500000
-0.475000 -1.350000 -6.475000 -0.650705 0.391362 -0.650706 0.625000 1.000000
-0.375000 -1.250000 -6.375000 -0.578885 0.574267 -0.578886 0.625000 1.000000
-3.475000 -1.350000 0.475000 -0.650706 0.391361 0.650706 0.625000 0.250000
-0.475000 -1.350000 -0.500000 -0.578885 0.574268 -0.578886 0.625000 0.125000
-3.475000 -1.350000 -0.500000 -0.650706 0.391361 -0.650706 0.625000 0.125000
-0.475000 -1.450000 -0.500000 -0.301511 -0.904534 -0.301511 0.875000 0.625000
0.475000 -1.450000 -6.475000 0.577350 -0.577351 -0.577350 0.625000 0.750000
0.475000 -1.450000 -0.400000 0.707107 -0.707107 0.000000 0.625000 0.625000
-3.475000 -1.450000 -0.500000 -0.577350 -0.577350 -0.577350 0.625000 0.125000
-3.475000 -1.450000 0.475000 -0.577350 -0.577350 0.577350 0.625000 0.250000
-0.475000 -1.350000 -6.475000 -0.650705 0.391362 -0.650706 0.625000 0.000000
-0.475000 -1.450000 -0.500000 -0.301511 -0.904534 -0.301511 0.625000 0.125000
-0.375000 -1.450000 0.475000 0.000000 -0.707107 0.707107 0.625000 0.250000
-0.475000 -1.450000 -6.475000 -0.577350 -0.577350 -0.577350 0.625000 1.000000
-0.375000 1.250000 -6.375000 -0.577350 0.577350 -0.577350 0.125000 0.750000
-3.375000 1.250000 -0.400000 -0.577350 0.577350 -0.577350 0.125000 0.625000
-0.375000 -1.450000 0.475000 0.000000 -0.707107 0.707107 0.875000 0.500000
-3.475000 -1.450000 0.475000 -0.577350 -0.577350 0.577350 0.875000 0.500000
-3.475000 -1.450000 -0.500000 -0.577350 -0.577350 -0.577350 0.875000 0.625000
-0.475000 -1.450000 -6.475000 -0.577350 -0.577350 -0.577350 0.875000 0.750000
-0.475000 -1.450000 -6.475000 -0.577350 -0.577350 -0.577350 0.625000 0.000000
3 0 1 2
3 3 4 5
3 6 7 8
3 9 10 11
3 12 13 14
3 15 13 16
3 17 14 10
3 3 18 19
3 3 2 20
3 16 21 2
3 7 8 1
3 1 5 0
3 22 23 24
3 3 25 26
3 16 22 21
3 12 27 16
3 2 22 24
3 2 18 20
3 9 28 17
3 12 28 29
3 30 31 32
3 28 33 29
3 29 34 27
3 35 36 28
3 18 31 19
3 27 37 22
3 24 32 18
3 19 38 25
3 2 20 0
3 20 3 0
3 3 5 0
3 3 26 4
3 1 0 8
3 0 5 6
3 8 0 6
3 5 39 6
3 6 40 7
3 9 17 10
3 12 16 13
3 16 21 15
3 21 2 15
3 2 1 15
3 17 12 14
3 3 20 18
3 22 37 23
3 3 19 25
3 16 27 22
3 12 29 27
3 2 21 22
3 2 24 18
3 9 35 28
3 12 17 28
3 23 41 32
3 41 42 30
3 32 41 30
3 42 43 30
3 30 44 31
3 28 36 33
3 29 33 34
3 35 45 36
3 18 32 31
3 27 34 37
3 24 23 32
3 19 31 38
