ply
format ascii 1.0
comment Created by Blender 3.4.1 - www.blender.org
element vertex 28
property float x
property float y
property float z
property float nx
property float ny
property float nz
property float s
property float t
element face 28
property list uchar uint vertex_indices
end_header
-1.000000 -1.000000 -1.000000 -0.577350 -0.577350 -0.577350 0.625000 0.000000
-1.000000 1.000000 -0.383619 -0.577350 0.577350 0.577350 0.375000 0.250000
-1.000000 1.000000 -1.000000 -0.577350 0.577350 -0.577350 0.375000 0.000000
3.620104 -1.000000 -0.383619 0.707107 -0.707107 0.000000 0.625000 0.500000
3.003395 -1.000000 3.069249 -0.577350 -0.577350 0.577350 0.750000 0.500000
3.003395 -1.000000 -0.383619 -0.301511 -0.904534 0.301511 0.750000 0.500000
3.620104 1.000000 -1.000000 0.577350 0.577350 -0.577350 0.375000 0.750000
3.620104 1.000000 -0.383619 0.707107 0.707107 0.000000 0.375000 0.500000
3.003395 -1.000000 -1.000000 0.000000 -0.707107 -0.707107 0.625000 0.875000
-1.000000 1.000000 -1.000000 -0.577350 0.577350 -0.577350 0.375000 1.000000
3.003395 1.000000 -1.000000 0.000000 0.707107 -0.707107 0.375000 0.875000
3.003395 1.000000 -1.000000 0.000000 0.707107 -0.707107 0.250000 0.750000
3.003395 1.000000 -0.383619 -0.301511 0.904534 0.301511 0.250000 0.500000
-1.000000 -1.000000 -0.383619 -0.577350 -0.577350 0.577350 0.875000 0.500000
3.003395 -1.000000 -1.000000 0.000000 -0.707107 -0.707107 0.750000 0.750000
3.620104 -1.000000 -1.000000 0.577350 -0.577350 -0.577350 0.625000 0.750000
-1.000000 1.000000 -1.000000 -0.577350 0.577350 -0.577350 0.125000 0.750000
-1.000000 1.000000 -0.383619 -0.577350 0.577350 0.577350 0.125000 0.500000
-1.000000 -1.000000 -0.383619 -0.577350 -0.577350 0.577350 0.625000 0.250000
3.003395 1.000000 -0.383619 -0.301511 0.904534 0.301511 0.375000 0.375000
3.003395 -1.000000 3.069249 -0.577350 -0.577350 0.577350 0.625000 0.375000
3.620104 1.000000 3.069249 0.577350 0.577350 0.577350 0.375000 0.500000
3.003395 1.000000 3.069249 -0.577350 0.577350 0.577350 0.375000 0.375000
3.003395 -1.000000 -0.383619 -0.301511 -0.904534 0.301511 0.625000 0.375000
3.620104 -1.000000 3.069249 0.577350 -0.577350 0.577350 0.625000 0.500000
-1.000000 -1.000000 -1.000000 -0.577350 -0.577350 -0.577350 0.625000 1.000000
-1.000000 -1.000000 -1.000000 -0.577350 -0.577350 -0.577350 0.875000 0.750000
3.003395 1.000000 3.069249 -0.577350 0.577350 0.577350 0.250000 0.500000
3 0 1 2
3 3 4 5
3 3 6 7
3 8 9 10
3 7 11 12
3 13 14 5
3 5 15 3
3 12 16 17
3 15 10 6
3 18 19 1
3 20 21 22
3 12 21 7
3 23 22 19
3 7 24 3
3 0 18 1
3 3 24 4
3 3 15 6
3 8 25 9
3 7 6 11
3 13 26 14
3 5 14 15
3 12 11 16
3 15 8 10
3 18 23 19
3 20 24 21
3 12 27 21
3 23 20 22
3 7 21 24
