ply
format ascii 1.0
comment Created by Blender 3.4.1 - www.blender.org
element vertex 14
property float x
property float y
property float z
property float nx
property float ny
property float nz
property float s
property float t
element face 12
property list uchar uint vertex_indices
end_header
-1.000000 1.000000 1.000000 -0.577350 0.577350 0.577350 0.875000 0.500000
1.000000 -1.000000 1.000000 0.577350 -0.577350 0.577350 0.625000 0.750000
1.000000 1.000000 1.000000 0.577350 0.577350 0.577350 0.625000 0.500000
-1.000000 -1.000000 -1.000000 -0.577350 -0.577350 -0.577350 0.375000 1.000000
1.000000 -1.000000 -1.000000 0.577350 -0.577350 -0.577350 0.375000 0.750000
-1.000000 -1.000000 1.000000 -0.577350 -0.577350 0.577350 0.625000 0.000000
-1.000000 1.000000 -1.000000 -0.577350 0.577350 -0.577350 0.375000 0.250000
-1.000000 -1.000000 -1.000000 -0.577350 -0.577350 -0.577350 0.375000 0.000000
1.000000 1.000000 -1.000000 0.577350 0.577350 -0.577350 0.375000 0.500000
-1.000000 -1.000000 -1.000000 -0.577350 -0.577350 -0.577350 0.125000 0.750000
-1.000000 1.000000 -1.000000 -0.577350 0.577350 -0.577350 0.125000 0.500000
-1.000000 1.000000 1.000000 -0.577350 0.577350 0.577350 0.625000 0.250000
-1.000000 -1.000000 1.000000 -0.577350 -0.577350 0.577350 0.875000 0.750000
-1.000000 -1.000000 1.000000 -0.577350 -0.577350 0.577350 0.625000 1.000000
3 0 1 2
3 1 3 4
3 5 6 7
3 8 9 10
3 2 4 8
3 11 8 6
3 0 12 1
3 1 13 3
3 5 11 6
3 8 4 9
3 2 1 4
3 11 2 8
