ply
format ascii 1.0
comment Created by Blender 3.4.1 - www.blender.org
element vertex 108
property float x
property float y
property float z
property float nx
property float ny
property float nz
property float s
property float t
element face 81
property list uchar uint vertex_indices
end_header
-5.000000 1.810000 1.330000 -0.577350 -0.577350 0.577351 1.000000 0.000000
5.000000 2.010000 1.330000 0.577350 0.577350 0.577351 0.000000 1.000000
-5.000000 2.010000 1.330000 -0.577350 0.577350 0.577350 0.000000 0.000000
-5.000000 1.810000 -0.470000 -0.904534 -0.301511 0.301511 1.000000 0.000000
5.000000 0.410000 -0.470000 0.904534 0.301511 0.301511 0.000000 1.000000
5.000000 1.810000 -0.470000 0.904534 -0.301511 0.301511 0.000000 0.000000
5.000000 1.810000 -0.470000 0.904534 -0.301511 0.301511 0.000000 1.000000
5.000000 1.810000 1.330000 0.577350 -0.577350 0.577350 0.000000 0.000000
5.000000 0.210000 -0.470000 0.904534 -0.301511 0.301511 0.000000 0.000000
-5.000000 0.210000 1.330000 -0.577350 -0.577350 0.577350 1.000000 1.000000
-5.000000 0.210000 -0.470000 -0.904534 -0.301511 0.301511 1.000000 0.000000
-5.000000 -1.190000 -0.470000 -0.904534 0.301511 0.301511 0.875000 0.625000
5.000000 -1.190000 1.330000 0.577350 0.577350 0.577350 0.625000 0.625000
5.000000 -1.190000 -0.470000 0.904534 0.301511 0.301511 0.625000 0.625000
5.000000 -1.190000 -0.470000 0.904534 0.301511 0.301511 0.000000 1.000000
-5.000000 0.410000 1.330000 -0.577350 0.577350 0.577351 1.000000 0.000000
5.000000 0.210000 1.330000 0.577350 -0.577350 0.577351 0.000000 1.000000
5.000000 0.410000 1.330000 0.577350 0.577350 0.577350 1.000000 1.000000
-5.000000 0.410000 -0.470000 -0.904534 0.301511 0.301511 0.875000 0.625000
5.000000 0.410000 -0.470000 0.904534 0.301511 0.301511 0.625000 0.625000
-5.000000 -1.190000 1.330000 -0.577350 0.577350 0.577351 1.000000 1.000000
5.000000 -1.390000 1.330000 0.577350 -0.577350 0.577351 0.000000 0.000000
5.000000 -1.190000 1.330000 0.577350 0.577350 0.577350 0.000000 1.000000
5.000000 -1.390000 -0.470000 0.904534 -0.301511 0.301511 0.000000 1.000000
-5.000000 -1.390000 1.330000 -0.577350 -0.577350 0.577350 1.000000 0.000000
-5.000000 -1.390000 -0.470000 -0.904534 -0.301511 0.301511 1.000000 1.000000
-5.000000 2.010000 -0.470000 -0.707107 0.707107 0.000000 0.125000 0.625000
-5.000000 2.010000 1.330000 -0.577350 0.577350 0.577350 0.125000 0.500000
5.000000 2.010000 1.330000 0.577350 0.577350 0.577351 0.375000 0.500000
-5.000000 -2.790000 -0.470000 -0.577350 -0.577351 0.577350 0.875000 0.625000
5.000000 -2.790000 -0.670000 0.577350 -0.577351 -0.577350 0.625000 0.750000
5.000000 -2.790000 -0.470000 0.577350 -0.577350 0.577350 0.625000 0.625000
-5.000000 -1.390000 -0.470000 -0.904534 -0.301511 0.301511 1.000000 0.000000
5.000000 -2.790000 -0.470000 0.577350 -0.577350 0.577350 0.000000 1.000000
5.000000 -1.390000 -0.470000 0.904534 -0.301511 0.301511 0.000000 0.000000
5.000000 -1.390000 -0.670000 0.707107 0.000000 -0.707107 0.906267 0.708326
-5.000000 -2.790000 -0.670000 -0.577350 -0.577350 -0.577350 0.000018 0.999982
-5.000000 -1.390000 -0.670000 -0.707107 0.000000 -0.707107 0.000018 0.708326
5.000000 -1.190000 -0.470000 0.904534 0.301511 0.301511 0.128125 0.666667
5.000000 -1.390000 -0.470000 0.904534 -0.301511 0.301511 0.128125 0.708333
5.000000 -1.390000 -0.670000 0.707107 0.000000 -0.707107 0.125000 0.708333
-5.000000 -1.390000 -0.670000 -0.707107 0.000000 -0.707107 0.156250 0.708333
-5.000000 -1.390000 -0.470000 -0.904534 -0.301511 0.301511 0.153125 0.708333
-5.000000 -1.190000 -0.470000 -0.904534 0.301511 0.301511 0.153125 0.666667
-5.000000 -2.790000 -0.670000 -0.577350 -0.577350 -0.577350 0.000000 0.000000
-5.000000 -1.390000 -0.670000 -0.707107 0.000000 -0.707107 0.000000 0.000000
-5.000000 0.410000 -0.670000 -0.707107 0.000000 -0.707107 0.000000 0.000000
5.000000 1.810000 1.330000 0.577350 -0.577350 0.577350 1.000000 1.000000
-5.000000 0.410000 -0.470000 -0.904534 0.301511 0.301511 1.000000 1.000000
-5.000000 1.810000 -0.470000 -0.904534 -0.301511 0.301511 1.000000 1.000000
-5.000000 -1.190000 1.330000 -0.577350 0.577350 0.577351 0.875000 0.625000
-5.000000 -1.190000 -0.470000 -0.904534 0.301511 0.301511 1.000000 1.000000
-5.000000 0.210000 1.330000 -0.577350 -0.577350 0.577350 0.000000 0.000000
-5.000000 0.410000 1.330000 -0.577350 0.577350 0.577351 0.875000 0.625000
5.000000 2.010000 -0.470000 0.707107 0.707107 0.000000 0.375000 0.625000
5.000000 2.010000 -0.670000 0.577350 0.577351 -0.577350 0.375000 0.750000
-5.000000 2.010000 -0.670000 -0.577350 0.577350 -0.577351 0.125000 0.750000
-5.000000 -2.790000 -0.670000 -0.577350 -0.577350 -0.577350 0.875000 0.750000
-5.000000 -2.790000 -0.470000 -0.577350 -0.577351 0.577350 1.000000 1.000000
-5.000000 2.010000 -0.670000 -0.577350 0.577350 -0.577351 0.000018 0.000018
5.000000 2.010000 -0.670000 0.577350 0.577351 -0.577350 0.906267 0.000018
5.000000 1.810000 -0.670000 0.707107 0.000000 -0.707107 0.906267 0.041683
5.000000 0.410000 -0.670000 0.707107 0.000000 -0.707107 0.906267 0.333339
5.000000 0.210000 -0.670000 0.707107 0.000000 -0.707107 0.906267 0.375004
-5.000000 0.410000 -0.670000 -0.707107 0.000000 -0.707107 0.000018 0.333339
5.000000 -1.190000 -0.670000 0.707107 0.000000 -0.707107 0.906267 0.666661
-5.000000 0.210000 -0.670000 -0.707107 0.000000 -0.707107 0.000018 0.375004
-5.000000 1.810000 -0.670000 -0.707107 0.000000 -0.707107 0.000018 0.041683
5.000000 -2.790000 -0.670000 0.577350 -0.577351 -0.577350 0.906267 0.999982
-5.000000 -1.190000 -0.670000 -0.707107 0.000000 -0.707107 0.000018 0.666661
5.000000 0.410000 -0.670000 0.707107 0.000000 -0.707107 0.125000 0.333333
5.000000 1.810000 -0.670000 0.707107 0.000000 -0.707107 0.125000 0.041667
5.000000 1.810000 -0.470000 0.904534 -0.301511 0.301511 0.128125 0.041667
5.000000 2.010000 -0.670000 0.577350 0.577351 -0.577350 0.125000 0.000000
5.000000 2.010000 -0.470000 0.707107 0.707107 0.000000 0.128125 0.000000
5.000000 2.010000 1.330000 0.577350 0.577350 0.577351 0.156250 0.000000
5.000000 1.810000 1.330000 0.577350 -0.577350 0.577350 0.156250 0.041667
5.000000 -1.190000 -0.670000 0.707107 0.000000 -0.707107 0.125000 0.666667
5.000000 0.210000 -0.670000 0.707107 0.000000 -0.707107 0.125000 0.375000
5.000000 0.210000 -0.470000 0.904534 -0.301511 0.301511 0.128125 0.375000
5.000000 0.410000 -0.470000 0.904534 0.301511 0.301511 0.128125 0.333333
5.000000 0.410000 1.330000 0.577350 0.577350 0.577350 0.156250 0.333333
5.000000 0.210000 1.330000 0.577350 -0.577350 0.577351 0.156250 0.375000
5.000000 -2.790000 -0.470000 0.577350 -0.577350 0.577350 0.128125 1.000000
5.000000 -2.790000 -0.670000 0.577350 -0.577351 -0.577350 0.125000 1.000000
5.000000 -1.190000 1.330000 0.577350 0.577350 0.577350 0.156250 0.666667
5.000000 -1.390000 1.330000 0.577350 -0.577350 0.577351 0.156250 0.708333
-5.000000 1.810000 -0.470000 -0.904534 -0.301511 0.301511 0.153125 0.041667
-5.000000 1.810000 1.330000 -0.577350 -0.577350 0.577351 0.125000 0.041667
-5.000000 2.010000 1.330000 -0.577350 0.577350 0.577350 0.125000 0.000000
-5.000000 2.010000 -0.470000 -0.707107 0.707107 0.000000 0.153125 0.000000
-5.000000 2.010000 -0.670000 -0.577350 0.577350 -0.577351 0.156250 0.000000
-5.000000 1.810000 -0.670000 -0.707107 0.000000 -0.707107 0.156250 0.041667
-5.000000 0.210000 1.330000 -0.577350 -0.577350 0.577350 0.125000 0.375000
-5.000000 0.410000 1.330000 -0.577350 0.577350 0.577351 0.125000 0.333333
-5.000000 0.410000 -0.470000 -0.904534 0.301511 0.301511 0.153125 0.333333
-5.000000 0.210000 -0.470000 -0.904534 -0.301511 0.301511 0.153125 0.375000
-5.000000 0.410000 -0.670000 -0.707107 0.000000 -0.707107 0.156250 0.333333
-5.000000 0.210000 -0.670000 -0.707107 0.000000 -0.707107 0.156250 0.375000
-5.000000 -1.190000 -0.670000 -0.707107 0.000000 -0.707107 0.156250 0.666667
-5.000000 -2.790000 -0.670000 -0.577350 -0.577350 -0.577350 0.156250 1.000000
-5.000000 -2.790000 -0.470000 -0.577350 -0.577351 0.577350 0.153125 1.000000
-5.000000 -1.390000 1.330000 -0.577350 -0.577350 0.577350 0.125000 0.708333
-5.000000 -1.190000 1.330000 -0.577350 0.577350 0.577351 0.125000 0.666667
-5.000000 1.810000 -0.670000 -0.707107 0.000000 -0.707107 0.000000 0.000000
-5.000000 2.010000 -0.670000 -0.577350 0.577350 -0.577351 0.000000 0.000000
-5.000000 -1.190000 -0.670000 -0.707107 0.000000 -0.707107 0.000000 0.000000
-5.000000 0.210000 -0.670000 -0.707107 0.000000 -0.707107 0.000000 0.000000
3 0 1 2
3 3 4 5
3 0 6 7
3 8 9 10
3 11 12 13
3 10 14 8
3 15 16 17
3 18 17 19
3 20 21 22
3 23 24 25
3 26 27 28
3 29 30 31
3 32 33 34
3 35 36 37
3 38 39 40
3 41 42 43
3 44 45 46
3 0 47 1
3 3 48 4
3 0 49 6
3 8 16 9
3 11 50 12
3 10 51 14
3 15 52 16
3 18 53 17
3 20 24 21
3 23 21 24
3 28 54 26
3 54 55 26
3 55 56 26
3 29 57 30
3 32 58 33
3 59 60 61
3 62 63 64
3 63 65 66
3 62 64 67
3 59 61 67
3 61 62 67
3 66 64 63
3 65 35 37
3 35 68 36
3 37 69 65
3 69 66 65
3 70 71 72
3 71 73 74
3 74 75 76
3 71 74 72
3 40 77 38
3 77 78 79
3 79 78 80
3 78 70 80
3 74 76 72
3 80 81 82
3 70 72 80
3 80 82 79
3 83 84 40
3 79 38 77
3 39 83 40
3 85 86 39
3 38 85 39
3 87 88 89
3 90 91 92
3 87 89 90
3 93 94 95
3 87 90 92
3 96 93 95
3 95 87 92
3 97 98 95
3 98 99 96
3 95 98 96
3 95 92 97
3 43 96 99
3 43 99 41
3 41 100 101
3 102 103 43
3 41 101 42
3 42 102 43
3 104 105 44
3 45 106 107
3 46 104 44
3 45 107 46
