ply
format ascii 1.0
comment Created by Blender 3.4.1 - www.blender.org
element vertex 20
property float x
property float y
property float z
property float nx
property float ny
property float nz
property float s
property float t
element face 12
property list uchar uint vertex_indices
end_header
-0.495995 -1.699873 -5.592012 -0.577350 -0.577350 -0.577350 0.625000 0.000000
-0.495995 1.699873 5.592012 -0.577350 0.577350 0.577350 0.375000 0.250000
-0.495994 1.699873 -5.592012 -0.577350 0.577350 -0.577350 0.375000 0.000000
-0.495995 -1.699873 5.592012 -0.577350 -0.577350 0.577350 0.625000 0.250000
0.495995 1.699873 5.592012 0.577350 0.577350 0.577350 0.375000 0.500000
0.495995 -1.699873 5.592012 0.577350 -0.577350 0.577350 1.000000 1.000000
0.495994 1.699873 -5.592012 0.577350 0.577350 -0.577350 0.000000 0.000000
0.495995 1.699873 5.592012 0.577350 0.577350 0.577350 1.000000 0.000000
0.495995 -1.699873 -5.592012 0.577350 -0.577350 -0.577350 0.625000 0.750000
-0.495994 1.699873 -5.592012 -0.577350 0.577350 -0.577350 0.375000 1.000000
0.495994 1.699873 -5.592012 0.577350 0.577350 -0.577350 0.375000 0.750000
-0.495994 1.699873 -5.592012 -0.577350 0.577350 -0.577350 0.125000 0.750000
-0.495995 1.699873 5.592012 -0.577350 0.577350 0.577350 0.125000 0.500000
-0.495995 -1.699873 5.592012 -0.577350 -0.577350 0.577350 0.875000 0.500000
0.495995 -1.699873 5.592012 0.577350 -0.577350 0.577350 0.625000 0.500000
0.495995 -1.699873 5.592012 0.577350 -0.577350 0.577350 1.000000 1.000000
0.495995 -1.699873 -5.592012 0.577350 -0.577350 -0.577350 0.000000 1.000000
0.495994 1.699873 -5.592012 0.577350 0.577350 -0.577350 0.001610 0.001431
-0.495995 -1.699873 -5.592012 -0.577350 -0.577350 -0.577350 0.625000 1.000000
-0.495995 -1.699873 -5.592012 -0.577350 -0.577350 -0.577350 0.875000 0.750000
3 0 1 2
3 3 4 1
3 5 6 7
3 8 9 10
3 4 11 12
3 13 8 14
3 0 3 1
3 3 14 4
3 15 16 17
3 8 18 9
3 4 10 11
3 13 19 8
