ply
format ascii 1.0
comment Created by Blender 3.4.1 - www.blender.org
element vertex 4
property float x
property float y
property float z
property float nx
property float ny
property float nz
property float s
property float t
element face 2
property list uchar uint vertex_indices
end_header
9.999997 0.007969 -10.000000 -0.000797 1.000000 0.000000 1.000000 0.000000
-9.999997 -0.007969 10.000000 -0.000797 1.000000 0.000000 0.000000 1.000000
9.999997 0.007969 10.000000 -0.000797 1.000000 0.000000 0.000000 0.000000
-9.999997 -0.007969 -10.000000 -0.000797 1.000000 0.000000 1.000000 1.000000
3 0 1 2
3 0 3 1
