ply
format ascii 1.0
comment Created by Blender 3.4.1 - www.blender.org
element vertex 16
property float x
property float y
property float z
property float nx
property float ny
property float nz
property float s
property float t
element face 16
property list uchar uint vertex_indices
end_header
-18.000000 0.100000 -18.000000 0.577350 -0.577350 0.577350 0.625000 0.000000
-18.000000 -11.099999 18.000000 0.707107 0.000000 -0.707107 0.375000 0.250000
-18.000000 -11.099999 -18.000000 0.707107 0.000000 0.707107 0.375000 0.000000
18.000000 0.100000 18.000000 -0.577356 -0.577356 -0.577339 0.625000 0.500000
18.000000 -11.099999 -18.000000 -0.707107 0.000000 0.707107 0.375000 0.750000
18.000000 -11.099999 18.000000 -0.707107 0.000000 -0.707107 0.375000 0.500000
18.000000 0.100000 -18.000000 -0.577350 -0.577350 0.577350 0.625000 0.750000
-18.000000 -11.099999 -18.000000 0.707107 0.000000 0.707107 0.375000 1.000000
-18.000000 0.100000 18.000000 0.577350 -0.577350 -0.577351 0.875000 0.500000
-15.600881 -9.164449 18.000000 0.000000 0.000000 -1.000000 0.376157 0.314794
-18.000000 0.100000 18.000000 0.577350 -0.577350 -0.577351 0.625000 0.250000
-15.600881 0.164449 18.000000 0.000000 0.000000 1.000000 0.623843 0.314794
-10.399118 -9.164449 18.000000 0.000000 0.000000 -1.000000 0.376157 0.435206
-10.399118 0.164449 18.000000 0.000000 0.000000 1.000000 0.623843 0.435206
-18.000000 0.100000 -18.000000 0.577350 -0.577350 0.577350 0.625000 1.000000
-18.000000 0.100000 -18.000000 0.577350 -0.577350 0.577350 0.875000 0.750000
3 0 1 2
3 3 4 5
3 6 7 4
3 8 6 3
3 9 10 11
3 12 1 9
3 13 10 3
3 12 3 5
3 0 10 1
3 3 6 4
3 6 14 7
3 8 15 6
3 9 1 10
3 12 5 1
3 13 11 10
3 12 13 3
